<?xml version="1.0" encoding="UTF-8" standalone="no"?>
<svg
   xmlns:dc="http://purl.org/dc/elements/1.1/"
   xmlns:cc="http://creativecommons.org/ns#"
   xmlns:rdf="http://www.w3.org/1999/02/22-rdf-syntax-ns#"
   xmlns:svg="http://www.w3.org/2000/svg"
   xmlns="http://www.w3.org/2000/svg"
   xmlns:sodipodi="http://sodipodi.sourceforge.net/DTD/sodipodi-0.dtd"
   xmlns:inkscape="http://www.inkscape.org/namespaces/inkscape"
   width="300mm"
   height="300mm"
   viewBox="0 0 300 300"
   version="1.1"
   id="svg8"
   inkscape:version="1.0.2 (e86c870879, 2021-01-15)"
   sodipodi:docname="Kyy_logo.svg">
  <defs
     id="defs2" />
  <sodipodi:namedview
     id="base"
     pagecolor="#ffffff"
     bordercolor="#666666"
     borderopacity="1.0"
     inkscape:pageopacity="0.0"
     inkscape:pageshadow="2"
     inkscape:zoom="0.73554167"
     inkscape:cx="566.92913"
     inkscape:cy="565.56959"
     inkscape:document-units="mm"
     inkscape:current-layer="layer8"
     inkscape:document-rotation="0"
     showgrid="false"
     inkscape:window-width="1916"
     inkscape:window-height="1031"
     inkscape:window-x="0"
     inkscape:window-y="0"
     inkscape:window-maximized="1"
     showguides="true"
     inkscape:guide-bbox="true"
     inkscape:snap-to-guides="true"
     inkscape:snap-others="true"
     inkscape:object-nodes="true"
     inkscape:snap-nodes="true"
     inkscape:snap-global="true"
     inkscape:snap-page="true">
    <sodipodi:guide
       position="150.06052,128.15355"
       orientation="1,0"
       id="guide851" />
    <sodipodi:guide
       position="150.06052,150.32718"
       orientation="0,-1"
       id="guide853" />
  </sodipodi:namedview>
  <metadata
     id="metadata5">
    <rdf:RDF>
      <cc:Work
         rdf:about="">
        <dc:format>image/svg+xml</dc:format>
        <dc:type
           rdf:resource="http://purl.org/dc/dcmitype/StillImage" />
        <dc:title></dc:title>
      </cc:Work>
    </rdf:RDF>
  </metadata>
  <g
     inkscape:groupmode="layer"
     id="layer8"
     inkscape:label="Background">
    <rect
       style="fill:#ffffff;fill-opacity:1;stroke:none;stroke-width:1.6;stroke-linecap:round;stroke-linejoin:round;stroke-miterlimit:4;stroke-dasharray:none;stroke-opacity:1"
       id="rect1098"
       width="300"
       height="300"
       x="0"
       y="0" />
  </g>
  <g
     inkscape:groupmode="layer"
     id="layer6"
     inkscape:label="Plow_fill"
     style="display:inline">
    <path
       style="display:inline;fill:#ffc92a;fill-opacity:1;stroke:none;stroke-width:0.264583px;stroke-linecap:butt;stroke-linejoin:miter;stroke-opacity:1"
       d="m 153.02753,157.76605 c 5.01608,34.89049 19.16207,66.41237 47.57887,86.22123 -15.67272,14.91905 -55.82121,18.42775 -108.566188,11.5879 -22.431089,-25.40973 -50.359338,-46.75957 -52.086524,-99.34014 36.362783,-2.64432 75.176152,-4.83791 113.073842,1.53101 z"
       id="path1072"
       sodipodi:nodetypes="ccccc" />
  </g>
  <g
     inkscape:groupmode="layer"
     id="layer3"
     inkscape:label="Plow_outline"
     style="display:inline">
    <path
       style="fill:#ba8100;fill-opacity:1;stroke:none;stroke-width:1.6;stroke-linecap:butt;stroke-linejoin:round;stroke-opacity:1;stroke-miterlimit:4;stroke-dasharray:none"
       d="m 150.06052,149.67282 -115.732899,2.1e-4 c -2.179276,42.90377 20.165978,79.59824 47.055961,112.53477 l 82.384708,1.70322 15.70499,17.08682 c 29.17405,-17.33097 68.36495,-9.07799 93.36026,-6.93295 -24.67429,-9.3901 -40.85192,-6.95946 -74.5543,-29.93522 -35.30114,18.6826 -70.97541,8.12126 -105.484249,10.44152 C 74.349981,233.13425 44.85753,201.352 41.183533,157.76194 c 36.594666,-1.372 74.890267,-0.35725 110.756557,1.86308 z"
       id="path878"
       sodipodi:nodetypes="ccccccccccc" />
  </g>
  <g
     inkscape:groupmode="layer"
     id="layer7"
     inkscape:label="Kyy_fill">
    <path
       style="fill:#d3d3d3;fill-opacity:1;stroke:none;stroke-width:0.264583px;stroke-linecap:butt;stroke-linejoin:miter;stroke-opacity:1"
       d="m 277.79191,237.7384 -42.39935,-15.14914 -31.64017,-28.37033 -13.44898,-39.78348 -1.35169,-20.27379 4.01433,-17.87967 13.35771,-19.45463 13.72203,-12.000743 12.56722,-5.956623 7.50819,-0.126719 9.6104,2.267394 0.96172,-1.412031 -1.03036,-2.767486 -13.02582,-9.154811 0.33113,-2.498206 12.67433,-4.455586 25.14801,-2.529885 1.59909,-4.289645 -1.33284,-5.249851 -17.18271,-6.436352 -26.76369,2.868562 -19.30377,5.895525 -20.89985,12.597386 -18.97188,20.847047 -11.75484,25.455754 -6.31793,26.00789 0.66755,34.16704 15.42295,45.25887 27.8725,29.68807 22.20627,12.18027 28.54532,9.10124 29.55986,6.45824 c 0,0 2.52294,-4.20209 3.83831,-8.52536 1.30941,-4.30372 1.57198,-8.12262 0.80995,-12.24647 -1.06641,-5.77109 -4.99299,-14.23248 -4.99299,-14.23248 z"
       id="path1095"
       sodipodi:nodetypes="ccccccccccccccccccccccccccccccccssc" />
  </g>
  <g
     inkscape:label="Kyy_outline"
     inkscape:groupmode="layer"
     id="layer1"
     style="display:inline">
    <path
       style="fill:#000000;fill-opacity:1;stroke:none;stroke-width:0.264583px;stroke-linecap:butt;stroke-linejoin:miter;stroke-opacity:1"
       d="m 279.71835,234.64828 c 0,0 -47.02393,-10.1057 -68.33328,-36.98211 -16.00063,-20.18078 -23.74366,-48.86677 -18.09697,-73.99442 3.21686,-14.31497 15.75677,-25.990736 27.37476,-34.951144 5.54269,-4.274813 11.72049,-8.089312 18.69981,-7.555952 8.82514,0.674417 13.56514,8.38773 22.27204,9.977617 3.45186,0.630313 6.855,-1.515953 6.855,-1.515953 0,0 -6.6231,-5.097565 -12.02117,-9.372894 -5.77805,-4.576275 -17.31647,-13.751126 -17.31647,-13.751126 0,0 10.29888,-3.272668 18.32518,-4.071352 4.25327,-0.423236 10.86025,-0.03592 10.86025,-0.03592 8.16152,0.776211 7.97679,4.890398 6.39451,16.304307 0,0 2.73783,-5.536145 3.7098,-8.545451 1.52415,-4.718928 1.94306,-10.049474 1.44568,-14.983432 -0.23346,-2.315913 -0.96039,-4.821885 -2.58834,-6.485532 -4.75995,-4.864311 -12.02242,-7.299801 -18.79438,-7.977423 -18.78442,-1.879624 -38.88522,2.366585 -55.48372,11.359763 -16.87327,9.142052 -31.30505,24.084307 -40.47642,40.941667 -9.24315,16.989305 -12.66702,37.323815 -12.48411,56.663895 0.21038,22.24423 4.48643,45.61286 15.58885,64.88944 10.09296,17.5239 26.5416,31.50659 43.91304,41.85975 19.09694,11.38153 70.42724,20.81888 70.42724,20.81888 l 0.0267,-7.55985 c -0.52071,-0.11624 -46.42057,-8.5704 -65.24869,-18.4872 -17.64911,-9.29581 -32.56908,-21.78075 -41.6522,-39.54026 -6.72006,-13.1392 -12.72994,-31.6437 -14.80902,-48.10815 -1.78134,-14.10665 -0.90765,-30.89519 3.17276,-44.5158 4.88881,-16.31911 12.03819,-31.014136 23.11439,-43.957539 7.6502,-8.939856 19.73481,-15.688373 29.97482,-21.560215 9.35617,-5.365024 43.93641,-12.804381 57.60692,-3.252875 1.96896,2.018865 0.37666,5.141844 -0.0156,5.044818 -5.56602,1.641301 -23.87091,1.615132 -33.5207,5.976467 -3.62086,1.636491 -5.48901,2.012857 -5.23368,5.978151 0.22105,3.432837 14.92706,10.766143 15.064,11.253634 l -1.80606,0.489316 c 0,0 -8.30814,-2.78179 -12.40556,-2.302655 -12.81419,1.498437 -21.60937,10.420207 -30.93006,19.340601 -5.03711,4.820787 -9.42919,11.522597 -12.03739,17.988637 -3.50429,8.68755 -5.40222,17.71417 -5.03435,27.29411 0.59451,15.48189 3.56878,31.87784 10.79133,46.28071 8.24419,16.44018 23.01856,28.97706 38.89722,38.19429 11.77611,6.8358 43.91683,16.19761 43.88526,16.24622 z"
       id="path855"
       sodipodi:nodetypes="cssssscscsccsssssssssccssssssccssccsssssscc" />
  </g>
  <g
     inkscape:groupmode="layer"
     id="layer5"
     inkscape:label="Kyy_stripes"
     style="display:inline">
    <path
       style="fill:#000000;fill-opacity:1;stroke:none;stroke-width:4.99999;stroke-linecap:round;stroke-linejoin:round"
       id="path943"
       d="m 284.58541,252.7299 c -0.86826,-0.73818 -1.6478,-1.57409 -2.42253,-2.40799 -0.48294,-0.5289 -0.98674,-1.03876 -1.4873,-1.55108 -0.3079,-0.39393 -0.60952,-0.78418 -0.94755,-1.15458 -0.44471,-0.51395 -0.85987,-1.05602 -1.37531,-1.5011 -0.53758,-0.37141 -1.11527,-0.68149 -1.67695,-1.01551 -0.38632,-0.23271 -0.81143,-0.37463 -1.2359,-0.51455 -0.25392,-0.0986 -0.13044,-0.0471 -0.37071,-0.15401 0,0 -10.17886,10.86554 -10.17886,10.86554 v 0 c 0.29379,0.15684 0.14679,0.0812 0.44093,0.22704 0.37116,0.17844 0.75295,0.28445 1.14789,0.40069 0.50753,0.2286 0.97523,0.53943 1.46788,0.79803 0.46728,0.35182 0.80661,0.84581 1.18235,1.28766 0.32559,0.43853 0.66799,0.86471 1.0465,1.25945 0.51065,0.49995 1.01902,1.00275 1.54311,1.48851 0.82619,0.779 1.65182,1.5664 2.37199,2.44643 0,0 10.49446,-10.47453 10.49446,-10.47453 z" />
    <path
       style="fill:#000000;fill-opacity:1;stroke:none;stroke-width:4.99999;stroke-linecap:round;stroke-linejoin:round"
       id="path945"
       d="m 273.17414,253.90749 c -0.63251,-0.79056 -1.13948,-1.6694 -1.70487,-2.50691 -0.39145,-0.52498 -0.9488,-0.88757 -1.47143,-1.2694 -0.46236,-0.34542 -0.93054,-0.68312 -1.39216,-1.02983 -0.50355,-0.37253 -0.97858,-0.77927 -1.42748,-1.21564 -0.57388,-0.52405 -1.12646,-1.06516 -1.63552,-1.653 -0.3937,-0.46962 -0.74432,-0.97171 -1.13075,-1.4473 -0.48655,-0.52126 -1.01392,-1.00867 -1.57185,-1.45307 -0.33891,-0.20757 -0.55928,-0.50709 -0.78533,-0.82389 -0.19938,-0.33361 -0.40066,-0.67136 -0.54977,-1.03111 -0.14073,-0.23041 -0.31747,-0.46471 -0.3376,-0.74287 0.0542,-0.25832 -0.14334,-0.50931 -0.22901,-0.75358 -0.21073,-0.43064 -0.41536,-0.86493 -0.62384,-1.29761 -0.16851,-0.38088 -0.084,-0.1868 -0.25331,-0.58234 0,0 -10.88833,10.08004 -10.88833,10.08004 v 0 c 0.17084,0.40887 0.0859,0.20341 0.25469,0.61639 0.16895,0.41178 0.38872,0.80247 0.50132,1.23542 0.091,0.27026 0.0711,0.55613 0.23007,0.80215 0.157,0.29259 0.33632,0.5729 0.47992,0.87252 0.23896,0.38607 0.47457,0.7745 0.72915,1.15061 0.31706,0.43483 0.6424,0.87226 1.11819,1.14645 0.48802,0.32343 0.94192,0.69794 1.30927,1.15732 0.39311,0.50789 0.76251,1.03526 1.22912,1.48139 0.55768,0.59499 1.10334,1.20326 1.69172,1.76811 0.50202,0.45806 0.98845,0.93687 1.54385,1.33167 0.47281,0.35526 0.9323,0.72799 1.40831,1.07925 0.40522,0.27369 0.83288,0.53915 1.15524,0.91093 0.61225,0.75244 1.20125,1.53396 1.6354,2.4052 0,0 10.715,-10.2309 10.715,-10.2309 z" />
    <path
       style="fill:#000000;fill-opacity:1;stroke:none;stroke-width:4.99999;stroke-linecap:round;stroke-linejoin:round"
       id="path947"
       d="m 256.43792,248.8636 c -0.82986,-0.65075 -1.60212,-1.36828 -2.35726,-2.10298 -0.43195,-0.39254 -0.84854,-0.80214 -1.28131,-1.19367 -0.40879,-0.34832 -0.71975,-0.78845 -1.05896,-1.20021 -0.30837,-0.40202 -0.6241,-0.79662 -0.90088,-1.22158 -0.20305,-0.33372 -0.25812,-0.69464 -0.3973,-1.05319 -0.16857,-0.50218 -0.30556,-1.01127 -0.37742,-1.53637 -0.16713,-0.58784 -0.34785,-1.17162 -0.53836,-1.7529 -0.10198,-0.53019 -0.3155,-1.01119 -0.54377,-1.49495 -0.0836,-0.3798 0.0419,-0.4489 -0.16343,-0.83777 -0.17523,-0.51141 -0.39397,-1.00073 -0.68234,-1.45923 -0.33051,-0.4656 -0.68118,-0.91652 -1.08054,-1.32505 -0.2405,-0.23424 -0.10932,-0.11625 -0.39663,-0.35052 0,0 -10.43548,10.59745 -10.43548,10.59745 v 0 c 0.20929,0.19133 0.1079,0.0992 0.30404,0.27639 0.31482,0.30802 0.59409,0.65281 0.8133,1.03598 0.18799,0.38703 0.31999,0.79531 0.42349,1.2124 -0.11267,0.33675 0.20077,0.73623 0.32709,1.03549 0.20058,0.40204 0.29451,0.84658 0.4476,1.26737 0.15564,0.55938 0.30541,1.12232 0.41779,1.69184 0.15854,0.56228 0.31144,1.12751 0.50519,1.67874 0.15178,0.47916 0.35215,0.91741 0.66621,1.31762 0.31609,0.45832 0.64746,0.90805 1.00305,1.33627 0.38365,0.4546 0.75493,0.92241 1.18456,1.33507 0.42716,0.41193 0.89963,0.77412 1.35615,1.15249 0.78866,0.66522 1.59941,1.31552 2.28367,2.0916 0,0 10.48154,-10.50029 10.48154,-10.50029 z" />
    <path
       style="fill:#000000;fill-opacity:1;stroke:none;stroke-width:4.99999;stroke-linecap:round;stroke-linejoin:round"
       id="path949"
       d="m 243.46671,245.26418 c -0.7077,-0.79128 -1.24963,-1.71757 -1.72778,-2.66117 -0.49267,-0.93681 -0.61841,-1.99898 -1.06772,-2.95048 -0.77424,-1.15591 -1.92984,-1.96168 -3.02082,-2.79359 -0.60873,-0.43795 -1.22895,-0.86099 -1.77381,-1.37873 -0.45888,-0.47103 -0.84683,-1.00578 -1.24127,-1.53052 -0.44167,-0.58445 -0.81656,-1.20051 -1.15435,-1.84928 -0.35771,-0.70865 -0.77246,-1.38489 -1.17141,-2.07035 -0.44645,-0.74623 -0.80039,-1.53447 -1.15324,-2.32725 -0.23315,-0.57003 -0.44182,-1.15096 -0.77385,-1.67245 -0.15679,-0.14311 -0.17016,-0.31642 -0.25421,-0.48535 0,0 -10.92744,10.18164 -10.92744,10.18164 v 0 c 0.0998,0.23097 0.2515,0.41989 0.40686,0.61585 0.28426,0.44888 0.50384,0.93464 0.73967,1.40964 0.37991,0.84153 0.74042,1.69344 1.22724,2.48118 0.39513,0.66529 0.77652,1.33905 1.13687,2.02385 0.38694,0.70131 0.80513,1.38704 1.29045,2.02522 0.44494,0.59815 0.91695,1.17805 1.40871,1.73801 0.60407,0.55515 1.31084,0.98476 2.0001,1.42503 0.9113,0.60293 1.92015,1.22461 2.43271,2.22342 0.36208,1.03679 0.63835,2.10911 1.17108,3.07821 0.57588,0.95355 1.19006,1.88142 1.77418,2.82887 0,0 10.67803,-10.31175 10.67803,-10.31175 z" />
    <path
       style="fill:#000000;fill-opacity:1;stroke:none;stroke-width:4.99999;stroke-linecap:round;stroke-linejoin:round"
       id="path951"
       d="m 227.81354,237.44626 c -0.59615,-0.87143 -1.02282,-1.848 -1.36554,-2.84313 -0.2199,-0.39333 -0.11233,-0.88676 -0.30514,-1.2698 -0.25002,-0.45204 -0.58362,-0.85085 -0.86939,-1.28132 -0.272,-0.42675 -0.43496,-0.90642 -0.67714,-1.348 -0.30879,-0.45574 -0.28161,-1.00519 -0.43069,-1.51092 -0.15343,-0.56192 -0.28627,-1.12204 -0.4116,-1.69111 -0.14749,-0.59035 -0.38269,-1.1533 -0.60266,-1.71916 -0.12971,-0.53943 -0.39313,-0.99052 -0.68051,-1.46172 -0.25043,-0.4195 -0.50318,-0.83751 -0.76961,-1.24695 -0.20407,-0.30634 -0.43182,-0.59753 -0.62468,-0.91112 -0.27584,-0.39187 -0.28671,-0.9005 -0.37431,-1.36599 -0.13857,-0.72633 -0.25833,-1.45747 -0.41514,-2.17942 -0.17308,-0.6432 -0.20872,-1.31431 -0.38911,-1.95455 -0.0956,-0.52799 -0.12128,-1.0681 -0.17289,-1.60339 -0.0285,-0.42251 -0.15585,-0.82145 -0.30606,-1.21357 0,0 -11.01279,9.9951 -11.01279,9.9951 v 0 c 0.0656,0.31853 0.10121,0.64063 0.13505,0.96398 0.0619,0.60146 0.0766,1.20974 0.27224,1.78915 0.11901,0.60708 0.31427,1.19715 0.40058,1.81119 0.0952,0.749 0.27948,1.47969 0.42158,2.22082 0.13601,0.66638 0.2576,1.31422 0.69084,1.86373 0.20988,0.29863 0.40944,0.60395 0.62092,0.90143 0.24956,0.38115 0.52788,0.74417 0.7431,1.14745 0.22108,0.42571 0.31396,0.89713 0.51791,1.33262 0.19945,0.48643 0.38156,0.97907 0.46924,1.50028 0.12013,0.58201 0.28333,1.15337 0.42385,1.73051 0.11104,0.62765 0.35437,1.21035 0.6516,1.77236 0.22547,0.50399 0.47802,0.99166 0.78968,1.44891 0.20451,0.33304 0.49238,0.64772 0.54975,1.04489 -0.0574,0.41421 0.42938,0.86317 0.49745,1.25636 0.47464,1.01772 0.96549,2.0262 1.47086,3.02863 0,0 10.75261,-10.20726 10.75261,-10.20726 z" />
    <path
       style="fill:#000000;fill-opacity:1;stroke:none;stroke-width:4.99999;stroke-linecap:round;stroke-linejoin:round"
       id="path953"
       d="m 214.89039,231.34339 c -0.8011,-0.82263 -1.42819,-1.79746 -1.96076,-2.80999 -0.49669,-0.98622 -1.09556,-1.90981 -1.58048,-2.9038 -0.42724,-0.94383 -0.84327,-1.89408 -1.1879,-2.87155 -0.20871,-0.49745 -0.30657,-1.02469 -0.39343,-1.55338 -0.027,-0.47598 -0.0642,-0.94665 -0.10589,-1.42248 -0.0507,-0.86401 -0.11353,-1.727 -0.1433,-2.59218 -0.0511,-0.59292 -0.17746,-1.1741 -0.24501,-1.76487 -0.0116,-0.68294 -0.0346,-1.36511 -0.0859,-2.04656 0.002,-1.28251 -0.21832,-2.54033 -0.39518,-3.80532 -0.0252,-0.73623 -0.22497,-1.42651 -0.40904,-2.12954 -0.19708,-0.63144 -0.42084,-1.25784 -0.66171,-1.87451 -0.10992,-0.35259 -0.25781,-0.68785 -0.39645,-1.02837 0,0 -10.94609,10.13771 -10.94609,10.13771 v 0 c 0.14137,0.31848 0.25233,0.65068 0.41197,0.96201 0.23112,0.57635 0.42525,1.16243 0.55133,1.77145 0.18546,0.61367 0.27801,1.25196 0.41309,1.87774 0.19968,1.22314 0.24696,2.45642 0.25998,3.69467 -0.007,0.76419 -0.0652,1.54428 0.0849,2.29831 0.11231,0.52955 0.18631,1.06536 0.20363,1.60717 0.0787,0.8637 0.14171,1.72768 0.15543,2.59542 0.0288,0.54952 0.0157,1.10104 0.20322,1.62799 0.15619,0.57711 0.3636,1.13105 0.61329,1.67532 0.42309,0.96774 0.8934,1.91535 1.35567,2.86478 0.49406,1.02653 1.02685,2.03616 1.59756,3.02198 0.63708,1.04649 1.3863,2.01387 2.06662,3.03164 0,0 10.59448,-10.36364 10.59448,-10.36364 z" />
    <path
       style="fill:#000000;fill-opacity:1;stroke:none;stroke-width:4.99999;stroke-linecap:round;stroke-linejoin:round"
       id="path955"
       d="m 202.37413,219.48323 c -0.99764,-1.23183 -1.63481,-2.70345 -2.17008,-4.18285 -0.41189,-0.96817 -0.8281,-1.94286 -1.31969,-2.87445 -0.41355,-0.88478 -0.68709,-1.82976 -0.9416,-2.77076 -0.18963,-0.71426 -0.34144,-1.42264 -0.39185,-2.1609 0.0132,-0.74189 -0.0626,-1.46812 -0.20023,-2.19605 -0.18054,-0.93247 -0.26114,-1.87522 -0.30322,-2.82272 -0.0549,-0.84227 -0.0805,-1.68932 -0.16715,-2.52942 -0.0657,-0.95008 -0.11721,-1.90005 -0.17397,-2.85055 -0.0444,-0.64882 -0.031,-1.29895 -0.0317,-1.9486 -0.005,-0.44543 0.0127,-0.89072 0.004,-1.33608 0.0112,-0.53304 -0.0797,-1.05778 -0.11115,-1.5896 -0.0312,-0.45249 -0.0258,-0.90616 -0.0164,-1.35923 0,0 -11.28011,9.67249 -11.28011,9.67249 v 0 c 0.0286,0.46346 0.0528,0.92722 0.0613,1.39156 0.0275,0.51801 0.0558,1.03198 0.0279,1.55085 -0.008,0.45643 0.008,0.91285 0.0205,1.36911 0.0328,0.63522 0.13598,1.26501 0.16387,1.9009 0.0606,0.96262 0.0754,1.92814 0.16148,2.88963 0.0399,0.84261 0.11901,1.68185 0.17214,2.5236 0.10162,0.96976 0.23493,1.93637 0.35465,2.90397 0.0637,0.73616 0.0382,1.47981 0.16419,2.20961 0.1471,0.78144 0.35634,1.54713 0.59427,2.30573 0.33102,0.99054 0.65133,1.98797 1.13139,2.9197 0.4237,0.93877 0.87702,1.86405 1.30058,2.80263 0.76042,1.4834 1.55559,2.95043 2.25949,4.46178 0,0 10.69079,-10.28035 10.69079,-10.28035 z" />
    <path
       style="fill:#000000;fill-opacity:1;stroke:none;stroke-width:4.99999;stroke-linecap:round;stroke-linejoin:round"
       id="path957"
       d="m 192.71926,210.19793 c -0.45728,-1.50053 -0.72426,-3.04448 -0.9337,-4.59588 -0.13906,-0.9096 -0.15588,-1.83008 -0.23207,-2.74505 -0.0534,-0.64942 -0.0113,-1.2969 0.0394,-1.94441 0.006,-0.65509 0.0562,-1.30925 0.0656,-1.96412 0.0174,-0.50667 0.0807,-1.01053 0.13113,-1.51472 0.0379,-0.66664 -0.13306,-1.33498 -0.2463,-1.98805 -0.20948,-1.36494 -0.2635,-2.74614 -0.25293,-4.125 0.009,-0.92213 -0.26793,-1.8202 -0.41467,-2.72567 -0.17287,-1.23249 -0.25066,-2.47482 -0.20982,-3.71844 0.002,-0.70082 0.0956,-1.39292 0.22851,-2.07935 0.0807,-0.51054 0.25379,-0.98449 0.47549,-1.44735 0.17309,-0.3184 0.23646,-0.63999 0.24097,-0.99815 -0.0212,-0.57273 -0.0204,-1.14546 -0.008,-1.71838 0.0306,-0.43613 0.003,-0.87241 0.004,-1.30879 -0.0347,-0.41435 -0.0241,-0.83021 -0.0105,-1.24514 0,0 -14.86141,2.2e-4 -14.86141,2.2e-4 v 0 c 0.0137,0.41534 0.0244,0.83159 -0.01,1.24638 0.002,0.43647 -0.0238,0.87294 0.009,1.30902 0.0124,0.52881 0.0278,1.0612 -0.0421,1.58693 -0.0603,0.19022 -0.15625,0.37137 -0.20965,0.56549 -0.18777,0.56238 -0.29707,1.14005 -0.39073,1.72491 -0.15435,0.7878 -0.26472,1.58729 -0.20915,2.39233 0.0868,1.28416 0.21903,2.56468 0.31677,3.84805 0.0528,0.89532 0.18065,1.77031 0.30483,2.65679 0.17519,1.37854 0.32168,2.7622 0.35009,4.15276 -0.006,0.59501 0.0141,1.18463 0.0319,1.77808 -0.0122,0.52998 -0.0496,1.05891 -0.0876,1.58756 -0.008,0.63 0.0131,1.26087 -0.0574,1.88871 -0.0364,0.70807 -0.0462,1.41542 -0.0125,2.12405 0.0326,0.96855 0.29345,1.91134 0.42312,2.86923 0.23263,1.54484 0.62221,3.06522 0.74607,4.62592 0,0 14.8213,-0.23793 14.8213,-0.23793 z" />
    <path
       style="fill:#000000;fill-opacity:1;stroke:none;stroke-width:4.99999;stroke-linecap:round;stroke-linejoin:round"
       id="path959"
       d="m 182.06659,189.71152 c -0.26721,-1.37507 -0.29331,-2.77951 -0.42817,-4.17035 -0.17735,-1.4617 -0.32093,-2.92335 -0.38002,-4.39497 0.004,-1.36521 0.0367,-2.72816 0.0281,-4.09367 7.9e-4,-1.06213 0.12832,-2.11703 0.16955,-3.17718 -0.0345,-1.15405 0.0289,-2.30851 0.13925,-3.45697 0.0995,-1.07925 0.49189,-2.09673 0.86987,-3.10302 0.30573,-0.77474 0.58047,-1.56129 0.8524,-2.34865 0.2799,-0.75801 0.55138,-1.51844 0.78081,-2.29334 0.22492,-0.74265 0.47893,-1.45579 0.54915,-2.23138 0.0724,-0.99695 0.0222,-1.99622 0.0235,-2.99438 0.008,-0.70572 0.002,-1.41275 0.16292,-2.10257 0.0412,-0.16039 0.1201,-0.2061 0.2584,-0.26644 0,0 -14.88777,-0.89746 -14.88777,-0.89746 v 0 c -0.13094,0.29688 -0.22644,0.59619 -0.24898,0.92291 -0.0855,0.7809 -0.0249,1.55685 -0.008,2.3405 -0.003,0.93625 -0.0265,1.87571 -0.12556,2.80713 -0.12217,0.67122 -0.30612,1.3319 -0.54118,1.97238 -0.24334,0.73802 -0.42221,1.49693 -0.72521,2.21478 -0.3142,0.7828 -0.59744,1.5798 -0.83338,2.38972 -0.35282,1.13789 -0.77931,2.27518 -0.83446,3.47732 -0.0683,1.17947 -0.17253,2.35563 -0.24084,3.53485 -0.008,1.06022 0.0264,2.12087 -0.0308,3.18039 -0.0664,1.39179 0.0203,2.77568 0.082,4.16645 0.0255,1.50359 -0.001,3.01453 0.26208,4.50084 0.14414,1.38046 0.35158,2.76236 0.27132,4.15458 0,0 14.83498,-0.13147 14.83498,-0.13147 z" />
    <path
       style="fill:#000000;fill-opacity:1;stroke:none;stroke-width:4.99999;stroke-linecap:round;stroke-linejoin:round"
       id="path963"
       d="m 174.59558,164.43543 c -0.0361,-1.51046 0.18369,-3.01559 0.40991,-4.50575 0.14185,-0.93498 0.52046,-1.75078 1.07138,-2.50664 0.50045,-0.61899 0.96824,-1.26069 1.41475,-1.91925 0.37819,-0.67113 0.90193,-1.23243 1.39521,-1.81749 0.69223,-0.65664 1.01124,-1.50502 1.38466,-2.35808 0.45743,-1.12984 0.96244,-2.23192 1.33279,-3.39453 0.37043,-1.55308 0.89847,-3.0591 1.45959,-4.55154 0.38708,-1.0053 0.70973,-2.03416 1.00874,-3.06864 0.14971,-0.53202 0.30751,-1.06184 0.45122,-1.59553 0,0 -14.89844,-0.31398 -14.89844,-0.31398 v 0 c -0.0765,0.50262 -0.1709,1.0032 -0.29432,1.4965 -0.28983,1.01289 -0.67729,1.99413 -0.93057,3.01777 -0.42861,1.54192 -0.9745,3.04193 -1.51478,4.54738 -0.37279,1.09341 -0.82821,2.16458 -1.33389,3.20241 -0.38078,0.72071 -0.86543,1.35768 -1.39137,1.97968 -0.53765,0.62858 -1.05058,1.27324 -1.48347,1.97985 -0.44018,0.66418 -0.93603,1.28977 -1.35177,1.97014 -0.53923,0.98897 -0.89784,2.02708 -1.03855,3.15069 -0.15025,1.53036 -0.10685,3.08526 -0.45778,4.59306 0,0 14.76669,0.094 14.76669,0.094 z" />
    <path
       style="fill:#000000;fill-opacity:1;stroke:none;stroke-width:4.99999;stroke-linecap:round;stroke-linejoin:round"
       id="path965"
       d="m 173.3533,149.49753 c 0.56953,-1.24502 1.15736,-2.4761 1.66375,-3.74948 0.36561,-1.01979 0.71193,-2.04853 1.26388,-2.9849 0.31998,-0.51688 0.6896,-1.00216 0.97553,-1.5395 0.21366,-0.52816 0.44003,-1.05212 0.64946,-1.58249 0.26893,-0.6912 0.45798,-1.4089 0.72371,-2.10089 0.44385,-1.03504 1.04703,-1.99134 1.632,-2.95059 0.69815,-1.14371 1.24067,-2.3711 1.84593,-3.56434 0.57824,-1.0613 1.23283,-2.07643 1.75583,-3.16724 0.28726,-0.63553 0.57119,-1.27256 0.85553,-1.9094 0,0 -12.80008,-7.26411 -12.80008,-7.26411 v 0 c -0.32333,0.62487 -0.62113,1.26109 -0.90194,1.90632 -0.48947,1.08642 -1.06468,2.12779 -1.60931,3.18729 -0.60082,1.16286 -1.25292,2.29726 -1.88404,3.44377 -0.58883,1.03976 -1.24608,2.03973 -1.80528,3.09513 -0.29637,0.68774 -0.52627,1.39387 -0.77388,2.09957 -0.19247,0.49841 -0.44025,0.97171 -0.64614,1.45947 -0.21085,0.54252 -0.58591,1.00401 -0.84178,1.5247 -0.52548,1.03243 -0.91274,2.11048 -1.25613,3.21572 -0.4497,1.22759 -0.98376,2.43556 -1.71644,3.52312 0,0 12.8694,7.35785 12.8694,7.35785 z" />
    <path
       style="fill:#000000;fill-opacity:1;stroke:none;stroke-width:4.99999;stroke-linecap:round;stroke-linejoin:round"
       id="path1023"
       d="m 171.92832,129.86943 c 0.84188,-1.63124 2.1777,-2.95317 3.48247,-4.22158 0.84591,-0.76248 1.76554,-1.439 2.66739,-2.13362 1.1965,-0.99082 2.38157,-1.99739 3.65222,-2.89305 0.73142,-0.39543 1.31584,-0.96243 1.85738,-1.58282 0.38371,-0.46099 0.75921,-0.92884 1.13724,-1.39455 0.40343,-0.45288 0.83054,-0.89021 1.28452,-1.2928 0.48922,-0.42611 0.95658,-0.87435 1.41281,-1.3355 0.38774,-0.38723 0.73199,-0.81289 1.075,-1.23913 0,0 -10.62753,-10.33566 -10.62753,-10.33566 v 0 c -0.26987,0.3868 -0.56498,0.75587 -0.91055,1.07887 -0.46573,0.43212 -0.93341,0.86219 -1.40568,1.2871 -0.48375,0.45858 -0.96659,0.91944 -1.39355,1.43291 -0.4069,0.45074 -0.81529,0.9035 -1.15823,1.40609 -0.4405,0.56519 -0.99606,0.99427 -1.55178,1.442 -1.16497,1.00429 -2.31251,2.03544 -3.57319,2.92065 -1.00654,0.71842 -2.10721,1.31177 -2.84834,2.33749 -1.23341,1.48162 -2.52995,2.90849 -3.84704,4.31571 0,0 10.74686,10.20789 10.74686,10.20789 z" />
    <path
       style="fill:#000000;fill-opacity:1;stroke:none;stroke-width:4.99999;stroke-linecap:round;stroke-linejoin:round"
       id="path1025"
       d="m 177.72265,110.54859 c 1.23789,-1.06593 2.5886,-2.00011 3.95563,-2.89261 1.0922,-0.7169 2.14676,-1.49066 3.21345,-2.24547 0.94317,-0.69496 1.91592,-1.35365 2.66316,-2.26514 0.61703,-0.97651 1.26468,-1.93174 1.92474,-2.87969 0.48171,-0.790894 1.08049,-1.468193 1.79714,-2.050197 0.53288,-0.467466 1.09059,-0.904563 1.62645,-1.368295 0.3611,-0.343884 0.82829,-0.527661 1.22273,-0.821553 0.0627,-0.05386 0.12543,-0.107709 0.18815,-0.161562 0,0 -10.45288,-10.629114 -10.45288,-10.629114 v 0 c -0.0299,0.02447 -0.0599,0.04893 -0.0898,0.0734 -0.44221,0.286702 -0.8457,0.625001 -1.25558,0.955352 -0.56739,0.450985 -1.0891,0.953855 -1.63744,1.427451 -0.74803,0.71556 -1.50499,1.446736 -2.02571,2.351513 -0.60641,0.935239 -1.20672,1.876182 -1.87913,2.766116 -0.61417,0.821788 -1.43102,1.46322 -2.24297,2.079807 -1.08707,0.753314 -2.23653,1.414386 -3.29175,2.212679 -1.24691,1.028271 -2.53162,2.029008 -3.95604,2.802051 0,0 10.23984,10.645262 10.23984,10.645262 z" />
    <path
       style="fill:#000000;fill-opacity:1;stroke:none;stroke-width:4.99999;stroke-linecap:round;stroke-linejoin:round"
       id="path1037"
       d="m 182.57373,93.999081 c 1.8341,-0.713521 3.69115,-1.366404 5.55494,-1.997806 1.15858,-0.326588 2.17881,-0.955923 3.19432,-1.580078 0.81279,-0.547833 1.60645,-1.11424 2.46282,-1.593424 1.072,-0.52813 2.18554,-0.963946 3.29182,-1.413402 0.52297,-0.216593 1.05332,-0.411585 1.58881,-0.594944 0.45207,-0.162626 0.84494,-0.444032 1.28838,-0.627947 0.88794,-0.241437 1.76259,-0.537588 2.6479,-0.794821 0.28529,-0.07283 0.57059,-0.145658 0.85588,-0.21849 0,0 -3.76972,-14.080527 -3.76972,-14.080527 v 0 c -0.28291,0.07815 -0.56583,0.156297 -0.84874,0.234444 -0.78665,0.18591 -0.88441,0.234998 -1.65693,0.32389 -0.28991,0.03336 -0.60509,0.0176 -0.89497,0.06329 -0.12868,0.02027 -0.29252,0.09595 -0.4124,0.145672 -0.40683,0.18978 -0.80144,0.401664 -1.20075,0.60503 -0.56445,0.224465 -1.12147,0.472684 -1.67335,0.726229 -1.07625,0.567909 -2.18723,1.053348 -3.30382,1.53626 -0.94403,0.429774 -1.8685,0.895147 -2.67252,1.56095 -0.88261,0.662699 -1.81642,1.210026 -2.84679,1.616413 -1.69726,0.771861 -3.43974,1.554036 -5.30987,1.768729 0,0 3.70499,14.320531 3.70499,14.320531 z" />
    <path
       style="fill:#000000;fill-opacity:1;stroke:none;stroke-width:4.99999;stroke-linecap:round;stroke-linejoin:round"
       id="path1041"
       d="m 194.33117,80.023419 c 1.17677,-0.767287 2.49518,-1.280576 3.81054,-1.756212 0.90669,-0.346138 1.81111,-0.680672 2.75046,-0.927417 1.33324,-0.267759 2.63711,-0.652301 3.94875,-1.005809 0.72177,-0.186012 1.44744,-0.353459 2.19078,-0.420375 0.44432,-0.01122 0.87125,-0.154236 1.28775,-0.297728 0.20405,-0.07049 0.4151,-0.113633 0.6254,-0.160996 0.75786,-0.235154 1.51496,-0.474691 2.2789,-0.689785 0.7542,-0.243104 1.52423,-0.396419 2.31214,-0.468518 0.6083,-0.03387 1.21715,-0.06199 1.8265,-0.0593 0.45233,0.01566 0.90335,0.04335 1.35599,0.04675 0,0 -3.47556,-14.498669 -3.47556,-14.498669 v 0 c -0.4494,2.65e-4 -0.8974,0.0226 -1.34642,0.04017 -0.6738,0.0082 -1.35156,-0.03132 -2.01817,0.09328 -0.84445,0.148318 -1.68729,0.318667 -2.50778,0.570021 -0.71869,0.210836 -1.43228,0.450747 -2.1817,0.528191 -0.29899,0.0496 -0.59715,0.09872 -0.87426,0.229348 -0.31593,0.132221 -0.63113,0.231921 -0.97667,0.256405 -0.79212,0.165746 -1.57221,0.38812 -2.34428,0.629386 -1.26524,0.412536 -2.53866,0.787442 -3.85565,1.000757 -1.03545,0.210606 -2.0605,0.466162 -2.99651,0.974678 -1.29575,0.619458 -2.60845,1.198467 -3.96734,1.667843 0,0 4.15713,14.247974 4.15713,14.247974 z" />
    <path
       style="fill:#000000;fill-opacity:1;stroke:none;stroke-width:4.99999;stroke-linecap:round;stroke-linejoin:round"
       id="path1069"
       d="m 236.12427,50.335701 c -1.67597,0.03267 -3.34224,-0.173342 -5.01598,-0.229061 -1.19606,0.0013 -2.37996,-0.186536 -3.5711,-0.249613 -0.99982,0.0059 -1.99475,0.02191 -2.98662,-0.118253 -0.76334,-0.202935 -1.55146,-0.190561 -2.3338,-0.234736 -0.9032,-0.05048 -1.80906,-0.0762 -2.70873,-0.17522 -0.66814,-0.01931 -1.31822,-0.155882 -1.97363,-0.272865 -0.28737,-0.04299 -0.56481,-0.111154 -0.8399,-0.202358 0,0 -12.51134,13.716775 -12.51134,13.716775 v 0 c 0.34646,0.119038 0.68491,0.263459 1.04438,0.340452 0.70124,0.150178 1.40213,0.290965 2.10642,0.421228 0.93758,0.06468 1.87616,0.061 2.81422,0.11657 0.73331,0.05498 1.46759,0.105555 2.19648,0.200776 1.03867,0.133811 2.0845,0.205237 3.13132,0.228825 1.25037,0.02151 2.50167,-0.01125 3.75199,0.03123 1.59301,0.06931 3.1927,0.132369 4.76844,0.387618 0,0 12.12785,-13.961369 12.12785,-13.961369 z" />
  </g>
  <g
     inkscape:groupmode="layer"
     id="layer4"
     inkscape:label="Kyy_eye"
     style="display:inline">
    <circle
       style="fill:#7d1b00;fill-opacity:1;stroke:none;stroke-width:4.99999;stroke-linecap:round;stroke-linejoin:round"
       id="path881"
       cx="256.06595"
       cy="51.139111"
       r="4.1814342" />
  </g>
</svg>
